custom-analysis
version=1
nRows=4
nColumns=98
inDegrees=no

This file contains tibia displacement and acting force.

Units are S.I. units (seconds, meters, Newtons, ...)
Angles are in degrees.

endheader
time	APT	SIT	knee_angle	aACL_R_force	pACL_R_force	aPCL_R_force	pPCL_R_force	aMCL_R_force	mMCL_R_force	pMCL_R_force	aLCL_R_force	mLCL_R_force	pLCL_R_force	aPCL_L_force	pPCL_L_force	aMCL_L_force	aLCL_L_force	aACL_R_length	pACL_R_length	aPCL_R_length	pPCL_R_length	aMCL_R_length	mMCL_R_length	pMCL_R_length	aLCL_R_length	mLCL_R_length	pLCL_R_length	aPCL_L_length	pPCL_L_length	aMCL_L_length	aLCL_L_length	aACL_R_strain	pACL_R_strain	aPCL_R_strain	pPCL_R_strain	aMCL_R_strain	mMCL_R_strain	pMCL_R_strain	aLCL_R_strain	mLCL_R_strain	pLCL_R_strain	aPCL_L_strain	pPCL_L_strain	aMCL_L_strain	aLCL_L_strain	femur_lat_meniscii_r.femur_lat_r.force.X	femur_lat_meniscii_r.femur_lat_r.force.Y	femur_lat_meniscii_r.femur_lat_r.force.Z	femur_lat_meniscii_r.femur_lat_r.torque.X	femur_lat_meniscii_r.femur_lat_r.torque.Y	femur_lat_meniscii_r.femur_lat_r.torque.Z	femur_lat_meniscii_r.meniscus_lat_r.force.X	femur_lat_meniscii_r.meniscus_lat_r.force.Y	femur_lat_meniscii_r.meniscus_lat_r.force.Z	femur_lat_meniscii_r.meniscus_lat_r.torque.X	femur_lat_meniscii_r.meniscus_lat_r.torque.Y	femur_lat_meniscii_r.meniscus_lat_r.torque.Z	femur_med_meniscii_r.femur_med_r.force.X	femur_med_meniscii_r.femur_med_r.force.Y	femur_med_meniscii_r.femur_med_r.force.Z	femur_med_meniscii_r.femur_med_r.torque.X	femur_med_meniscii_r.femur_med_r.torque.Y	femur_med_meniscii_r.femur_med_r.torque.Z	femur_med_meniscii_r.meniscus_med_r.force.X	femur_med_meniscii_r.meniscus_med_r.force.Y	femur_med_meniscii_r.meniscus_med_r.force.Z	femur_med_meniscii_r.meniscus_med_r.torque.X	femur_med_meniscii_r.meniscus_med_r.torque.Y	femur_med_meniscii_r.meniscus_med_r.torque.Z	femur_med_tibia_r.tibia_upper_r.force.X	femur_med_tibia_r.tibia_upper_r.force.Y	femur_med_tibia_r.tibia_upper_r.force.Z	femur_med_tibia_r.tibia_upper_r.torque.X	femur_med_tibia_r.tibia_upper_r.torque.Y	femur_med_tibia_r.tibia_upper_r.torque.Z	femur_med_tibia_r.femur_med_r.force.X	femur_med_tibia_r.femur_med_r.force.Y	femur_med_tibia_r.femur_med_r.force.Z	femur_med_tibia_r.femur_med_r.torque.X	femur_med_tibia_r.femur_med_r.torque.Y	femur_med_tibia_r.femur_med_r.torque.Z	femur_lat_tibia_r.tibia_upper_r.force.X	femur_lat_tibia_r.tibia_upper_r.force.Y	femur_lat_tibia_r.tibia_upper_r.force.Z	femur_lat_tibia_r.tibia_upper_r.torque.X	femur_lat_tibia_r.tibia_upper_r.torque.Y	femur_lat_tibia_r.tibia_upper_r.torque.Z	femur_lat_tibia_r.femur_lat_r.force.X	femur_lat_tibia_r.femur_lat_r.force.Y	femur_lat_tibia_r.femur_lat_r.force.Z	femur_lat_tibia_r.femur_lat_r.torque.X	femur_lat_tibia_r.femur_lat_r.torque.Y	femur_lat_tibia_r.femur_lat_r.torque.Z	femur_lat_meniscii_force_r	femur_med_meniscii_force_r	femur_lat_tibia_force_r	femur_med_tibia_force_r
      0.20693917	      0.01353217	      0.02581318	     80.40276605	      0.00000000	      0.00000000	    956.25266064	    600.88770371	     25.45981037	     10.15130688	      0.00000000	      0.00000000	      0.00000000	      0.00000000	      0.00000000	      0.00000000	      0.00000001	      0.00000000	      0.03094677	      0.02432525	      0.03712077	      0.03390406	      0.06144793	      0.05989302	      0.05651188	      0.05024460	      0.04483055	      0.03985409	      0.01525851	      0.01651186	      0.06550154	      0.04489616	     -0.00189408	     -0.02926939	      0.19377434	      0.13437779	      0.02367160	      0.00166437	     -0.03773526	     -0.10240948	     -0.20398323	     -0.23859310	      0.00000079	     -0.32847694	      0.00000060	     -0.00000086	     91.85987222	     55.94641379	      3.85431534	     -2.80586952	      2.12716381	     36.47962572	    -91.85987222	    -55.94641379	     -3.85431534	      1.43739699	     -2.47734212	      1.21810233	      0.14555254	      0.00093081	     -0.07381526	      0.02936863	     -0.00226402	      0.05790513	     -0.14555254	     -0.00093081	      0.07381526	     -0.00028487	      0.00386250	     -0.00053618	   -917.80963809	   -385.19192562	    320.90530773	     -8.74186862	     22.31159491	      1.99544116	    917.80963809	    385.19192562	   -320.90530773	    136.20304454	    -16.12669002	    369.97556801	   -339.15104690	   -157.19190367	    -92.69020472	      5.13285900	    -11.72488941	      1.10667456	    339.15104690	    157.19190367	     92.69020472	    -41.22883266	      8.31808007	    136.74510967	    107.62477915	      0.16320264	    385.12881123	   1045.81430850
      0.20770061	      0.01350851	      0.02596271	     80.82358061	      0.00000000	      0.00000000	    961.99424453	    604.84864318	     25.00338488	      9.86184390	      0.00000000	      0.00000000	      0.00000000	      0.00000000	      0.00000000	      0.00000000	      0.00000001	      0.00000000	      0.03094860	      0.02434708	      0.03715347	      0.03392952	      0.06147037	      0.05990350	      0.05652692	      0.05020342	      0.04478341	      0.03981350	      0.01525851	      0.01651186	      0.06550154	      0.04489616	     -0.00183509	     -0.02839798	      0.19482590	      0.13522981	      0.02404531	      0.00183972	     -0.03747915	     -0.10314523	     -0.20482024	     -0.23936869	      0.00000079	     -0.32847694	      0.00000060	     -0.00000086	     91.02178443	     54.95756581	      4.28515301	     -2.96845971	      2.11198190	     36.13863304	    -91.02178443	    -54.95756581	     -4.28515301	      1.42802900	     -2.47369390	      1.22095783	      0.10665542	     -0.00085747	     -0.06076766	      0.02416574	     -0.00166158	      0.04243961	     -0.10665542	      0.00085747	      0.06076766	     -0.00021761	      0.00301546	     -0.00042652	   -921.57552691	   -381.33751576	    321.62471111	     -8.61020885	     22.37167482	      2.07900786	    921.57552691	    381.33751576	   -321.62471111	    136.40292991	    -16.17077310	    371.44726844	   -342.11260822	   -155.91973684	    -93.81266735	      5.09808047	    -11.85447564	      1.11836634	    342.11260822	    155.91973684	     93.81266735	    -41.65134803	      8.39520130	    137.93218214	    106.41269575	      0.12275513	    387.49557106	   1047.93234874
      0.20826586	      0.01348968	      0.02607366	     81.13579516	      0.00000000	      0.00000000	    966.27127443	    607.84958122	     24.67830112	      9.66703273	      0.00000000	      0.00000000	      0.00000000	      0.00000000	      0.00000000	      0.00000000	      0.00000001	      0.00000000	      0.03094934	      0.02436296	      0.03717772	      0.03394850	      0.06148657	      0.05991105	      0.05653815	      0.05017287	      0.04474864	      0.03978392	      0.01525851	      0.01651186	      0.06550154	      0.04489616	     -0.00181136	     -0.02776456	      0.19560592	      0.13586477	      0.02431521	      0.00196590	     -0.03728796	     -0.10369104	     -0.20543764	     -0.23993368	      0.00000079	     -0.32847694	      0.00000060	     -0.00000086	     90.59023492	     55.46146303	      4.61588952	     -3.11536167	      2.10285508	     35.94873699	    -90.59023492	    -55.46146303	     -4.61588952	      1.44621379	     -2.47393436	      1.26816291	      0.08519342	     -0.00234956	     -0.05289925	      0.02102136	     -0.00133663	      0.03391247	     -0.08519342	      0.00234956	      0.05289925	     -0.00017230	      0.00253767	     -0.00038873	   -925.36834165	   -378.79031738	    322.55051462	     -8.51696839	     22.43896486	      2.13752785	    925.36834165	    378.79031738	   -322.55051462	    136.71094324	    -16.21829427	    372.94473127	   -344.55544302	   -154.88515016	    -94.28966119	      5.06498919	    -11.94130531	      1.11842010	    344.55544302	    154.88515016	     94.28966119	    -41.81779232	      8.45204879	    138.91615224	    106.31966413	      0.10030838	    389.35639620	   1050.63195590
      0.20849013	      0.01348204	      0.02611765	     81.25965268	      0.00000000	      0.00000000	    968.07708635	    609.38642740	     24.49132006	      9.59670282	      0.00000000	      0.00000000	      0.00000000	      0.00000000	      0.00000000	      0.00000000	      0.00000001	      0.00000000	      0.03094957	      0.02436923	      0.03718732	      0.03395601	      0.06149293	      0.05991401	      0.05654264	      0.05016077	      0.04473491	      0.03977232	      0.01525851	      0.01651186	      0.06550154	      0.04489616	     -0.00180381	     -0.02751404	      0.19591440	      0.13611604	      0.02442120	      0.00201545	     -0.03721160	     -0.10390716	     -0.20568141	     -0.24015527	      0.00000079	     -0.32847694	      0.00000060	     -0.00000086	     90.30659066	     55.84138807	      4.80838295	     -3.20315517	      2.09655595	     35.82615885	    -90.30659066	    -55.84138807	     -4.80838295	      1.45924781	     -2.47270688	      1.29466125	      0.07708991	     -0.00116090	     -0.04842991	      0.01925409	     -0.00120631	      0.03067582	     -0.07708991	      0.00116090	      0.04842991	     -0.00016159	      0.00230899	     -0.00031114	   -926.95287982	   -378.06620799	    323.80585533	     -8.49176419	     22.50063480	      2.16882766	    926.95287982	    378.06620799	   -323.80585533	    137.19589766	    -16.24827359	    373.57012720	   -345.09656995	   -154.65996961	    -94.59822483	      5.05740381	    -11.97050631	      1.13244194	    345.09656995	    154.65996961	     94.59822483	    -41.93596890	      8.46728934	    139.12889774	    106.28575391	      0.09104756	    389.82069331	   1052.15299789
